<?xml version="1.0" standalone="no"?>
<svg xmlns:xlink="http://www.w3.org/1999/xlink" id="wave" style="transform:rotate(0deg); transition: 0.3s" viewBox="0 0 1440 460" version="1.1" xmlns="http://www.w3.org/2000/svg"><defs><linearGradient id="sw-gradient-0" x1="0" x2="0" y1="1" y2="0"><stop stop-color="rgba(243, 106, 62, 1)" offset="0%"/><stop stop-color="rgba(255, 179, 11, 1)" offset="100%"/></linearGradient></defs><path style="transform:translate(0, 0px); opacity:1" fill="url(#sw-gradient-0)" d="M0,184L48,207C96,230,192,276,288,276C384,276,480,230,576,245.3C672,261,768,337,864,368C960,399,1056,383,1152,329.7C1248,276,1344,184,1440,130.3C1536,77,1632,61,1728,46C1824,31,1920,15,2016,7.7C2112,0,2208,0,2304,69C2400,138,2496,276,2592,314.3C2688,353,2784,291,2880,283.7C2976,276,3072,322,3168,291.3C3264,261,3360,153,3456,99.7C3552,46,3648,46,3744,76.7C3840,107,3936,169,4032,176.3C4128,184,4224,138,4320,115C4416,92,4512,92,4608,92C4704,92,4800,92,4896,130.3C4992,169,5088,245,5184,283.7C5280,322,5376,322,5472,329.7C5568,337,5664,353,5760,360.3C5856,368,5952,368,6048,322C6144,276,6240,184,6336,122.7C6432,61,6528,31,6624,30.7C6720,31,6816,61,6864,76.7L6912,92L6912,460L6864,460C6816,460,6720,460,6624,460C6528,460,6432,460,6336,460C6240,460,6144,460,6048,460C5952,460,5856,460,5760,460C5664,460,5568,460,5472,460C5376,460,5280,460,5184,460C5088,460,4992,460,4896,460C4800,460,4704,460,4608,460C4512,460,4416,460,4320,460C4224,460,4128,460,4032,460C3936,460,3840,460,3744,460C3648,460,3552,460,3456,460C3360,460,3264,460,3168,460C3072,460,2976,460,2880,460C2784,460,2688,460,2592,460C2496,460,2400,460,2304,460C2208,460,2112,460,2016,460C1920,460,1824,460,1728,460C1632,460,1536,460,1440,460C1344,460,1248,460,1152,460C1056,460,960,460,864,460C768,460,672,460,576,460C480,460,384,460,288,460C192,460,96,460,48,460L0,460Z"/></svg>