<?xml version="1.0" standalone="no"?>
<svg xmlns:xlink="http://www.w3.org/1999/xlink" id="wave" style="transform:rotate(0deg); transition: 0.3s" viewBox="0 0 1440 470" version="1.1" xmlns="http://www.w3.org/2000/svg"><defs><linearGradient id="sw-gradient-0" x1="0" x2="0" y1="1" y2="0"><stop stop-color="rgba(255, 255, 255, 1)" offset="0%"/><stop stop-color="rgba(255, 255, 255, 1)" offset="100%"/></linearGradient></defs><path style="transform:translate(0, 0px); opacity:1" fill="url(#sw-gradient-0)" d="M0,47L80,78.3C160,110,320,172,480,164.5C640,157,800,78,960,70.5C1120,63,1280,125,1440,148.8C1600,172,1760,157,1920,180.2C2080,204,2240,266,2400,258.5C2560,251,2720,172,2880,117.5C3040,63,3200,31,3360,62.7C3520,94,3680,188,3840,203.7C4000,219,4160,157,4320,125.3C4480,94,4640,94,4800,101.8C4960,110,5120,125,5280,125.3C5440,125,5600,110,5760,156.7C5920,204,6080,313,6240,360.3C6400,407,6560,392,6720,360.3C6880,329,7040,282,7200,235C7360,188,7520,141,7680,109.7C7840,78,8000,63,8160,62.7C8320,63,8480,78,8640,70.5C8800,63,8960,31,9120,62.7C9280,94,9440,188,9600,258.5C9760,329,9920,376,10080,376C10240,376,10400,329,10560,313.3C10720,298,10880,313,11040,305.5C11200,298,11360,266,11440,250.7L11520,235L11520,470L11440,470C11360,470,11200,470,11040,470C10880,470,10720,470,10560,470C10400,470,10240,470,10080,470C9920,470,9760,470,9600,470C9440,470,9280,470,9120,470C8960,470,8800,470,8640,470C8480,470,8320,470,8160,470C8000,470,7840,470,7680,470C7520,470,7360,470,7200,470C7040,470,6880,470,6720,470C6560,470,6400,470,6240,470C6080,470,5920,470,5760,470C5600,470,5440,470,5280,470C5120,470,4960,470,4800,470C4640,470,4480,470,4320,470C4160,470,4000,470,3840,470C3680,470,3520,470,3360,470C3200,470,3040,470,2880,470C2720,470,2560,470,2400,470C2240,470,2080,470,1920,470C1760,470,1600,470,1440,470C1280,470,1120,470,960,470C800,470,640,470,480,470C320,470,160,470,80,470L0,470Z"/></svg>