<?xml version="1.0" standalone="no"?>
<svg xmlns:xlink="http://www.w3.org/1999/xlink" id="wave" style="transform:rotate(0deg); transition: 0.3s" viewBox="0 0 1440 260" version="1.1" xmlns="http://www.w3.org/2000/svg"><defs><linearGradient id="sw-gradient-0" x1="0" x2="0" y1="1" y2="0"><stop stop-color="rgba(239.383, 239.383, 239.383, 1)" offset="0%"/><stop stop-color="rgba(255, 254.19, 254.19, 1)" offset="100%"/></linearGradient></defs><path style="transform:translate(0, 0px); opacity:1" fill="url(#sw-gradient-0)" d="M0,234L80,221C160,208,320,182,480,143C640,104,800,52,960,65C1120,78,1280,156,1440,160.3C1600,165,1760,95,1920,56.3C2080,17,2240,9,2400,43.3C2560,78,2720,156,2880,186.3C3040,217,3200,199,3360,160.3C3520,121,3680,61,3840,69.3C4000,78,4160,156,4320,156C4480,156,4640,78,4800,65C4960,52,5120,104,5280,138.7C5440,173,5600,191,5760,164.7C5920,139,6080,69,6240,60.7C6400,52,6560,104,6720,112.7C6880,121,7040,87,7200,73.7C7360,61,7520,69,7680,82.3C7840,95,8000,113,8160,121.3C8320,130,8480,130,8640,143C8800,156,8960,182,9120,177.7C9280,173,9440,139,9600,134.3C9760,130,9920,156,10080,169C10240,182,10400,182,10560,182C10720,182,10880,182,11040,156C11200,130,11360,78,11440,52L11520,26L11520,260L11440,260C11360,260,11200,260,11040,260C10880,260,10720,260,10560,260C10400,260,10240,260,10080,260C9920,260,9760,260,9600,260C9440,260,9280,260,9120,260C8960,260,8800,260,8640,260C8480,260,8320,260,8160,260C8000,260,7840,260,7680,260C7520,260,7360,260,7200,260C7040,260,6880,260,6720,260C6560,260,6400,260,6240,260C6080,260,5920,260,5760,260C5600,260,5440,260,5280,260C5120,260,4960,260,4800,260C4640,260,4480,260,4320,260C4160,260,4000,260,3840,260C3680,260,3520,260,3360,260C3200,260,3040,260,2880,260C2720,260,2560,260,2400,260C2240,260,2080,260,1920,260C1760,260,1600,260,1440,260C1280,260,1120,260,960,260C800,260,640,260,480,260C320,260,160,260,80,260L0,260Z"/></svg>