<?xml version="1.0" standalone="no"?>
<svg xmlns:xlink="http://www.w3.org/1999/xlink" id="wave" style="transform:rotate(0deg); transition: 0.3s" viewBox="0 0 1440 260" version="1.1" xmlns="http://www.w3.org/2000/svg"><defs><linearGradient id="sw-gradient-0" x1="0" x2="0" y1="1" y2="0"><stop stop-color="rgba(239.383, 239.383, 239.383, 1)" offset="0%"/><stop stop-color="rgba(255, 254.19, 254.19, 1)" offset="100%"/></linearGradient></defs><path style="transform:translate(0, 0px); opacity:1" fill="url(#sw-gradient-0)" d="M0,234L60,221C120,208,240,182,360,143C480,104,600,52,720,65C840,78,960,156,1080,160.3C1200,165,1320,95,1440,56.3C1560,17,1680,9,1800,43.3C1920,78,2040,156,2160,186.3C2280,217,2400,199,2520,160.3C2640,121,2760,61,2880,69.3C3000,78,3120,156,3240,156C3360,156,3480,78,3600,65C3720,52,3840,104,3960,138.7C4080,173,4200,191,4320,164.7C4440,139,4560,69,4680,60.7C4800,52,4920,104,5040,112.7C5160,121,5280,87,5400,73.7C5520,61,5640,69,5760,82.3C5880,95,6000,113,6120,121.3C6240,130,6360,130,6480,143C6600,156,6720,182,6840,177.7C6960,173,7080,139,7200,134.3C7320,130,7440,156,7560,169C7680,182,7800,182,7920,182C8040,182,8160,182,8280,156C8400,130,8520,78,8580,52L8640,26L8640,260L8580,260C8520,260,8400,260,8280,260C8160,260,8040,260,7920,260C7800,260,7680,260,7560,260C7440,260,7320,260,7200,260C7080,260,6960,260,6840,260C6720,260,6600,260,6480,260C6360,260,6240,260,6120,260C6000,260,5880,260,5760,260C5640,260,5520,260,5400,260C5280,260,5160,260,5040,260C4920,260,4800,260,4680,260C4560,260,4440,260,4320,260C4200,260,4080,260,3960,260C3840,260,3720,260,3600,260C3480,260,3360,260,3240,260C3120,260,3000,260,2880,260C2760,260,2640,260,2520,260C2400,260,2280,260,2160,260C2040,260,1920,260,1800,260C1680,260,1560,260,1440,260C1320,260,1200,260,1080,260C960,260,840,260,720,260C600,260,480,260,360,260C240,260,120,260,60,260L0,260Z"/></svg>