<?xml version="1.0" standalone="no"?>
<svg xmlns:xlink="http://www.w3.org/1999/xlink" id="wave" style="transform:rotate(0deg); transition: 0.3s" viewBox="0 0 1440 340" version="1.1" xmlns="http://www.w3.org/2000/svg"><defs><linearGradient id="sw-gradient-0" x1="0" x2="0" y1="1" y2="0"><stop stop-color="rgba(239.383, 239.383, 239.383, 1)" offset="0%"/><stop stop-color="rgba(255, 254.19, 254.19, 1)" offset="100%"/></linearGradient></defs><path style="transform:translate(0, 0px); opacity:1" fill="url(#sw-gradient-0)" d="M0,0L60,5.7C120,11,240,23,360,34C480,45,600,57,720,79.3C840,102,960,136,1080,164.3C1200,193,1320,215,1440,187C1560,159,1680,79,1800,90.7C1920,102,2040,204,2160,238C2280,272,2400,238,2520,226.7C2640,215,2760,227,2880,238C3000,249,3120,261,3240,232.3C3360,204,3480,136,3600,113.3C3720,91,3840,113,3960,136C4080,159,4200,181,4320,204C4440,227,4560,249,4680,243.7C4800,238,4920,204,5040,187C5160,170,5280,170,5400,147.3C5520,125,5640,79,5760,85C5880,91,6000,147,6120,141.7C6240,136,6360,68,6480,79.3C6600,91,6720,181,6840,187C6960,193,7080,113,7200,119C7320,125,7440,215,7560,226.7C7680,238,7800,170,7920,124.7C8040,79,8160,57,8280,73.7C8400,91,8520,147,8580,175.7L8640,204L8640,340L8580,340C8520,340,8400,340,8280,340C8160,340,8040,340,7920,340C7800,340,7680,340,7560,340C7440,340,7320,340,7200,340C7080,340,6960,340,6840,340C6720,340,6600,340,6480,340C6360,340,6240,340,6120,340C6000,340,5880,340,5760,340C5640,340,5520,340,5400,340C5280,340,5160,340,5040,340C4920,340,4800,340,4680,340C4560,340,4440,340,4320,340C4200,340,4080,340,3960,340C3840,340,3720,340,3600,340C3480,340,3360,340,3240,340C3120,340,3000,340,2880,340C2760,340,2640,340,2520,340C2400,340,2280,340,2160,340C2040,340,1920,340,1800,340C1680,340,1560,340,1440,340C1320,340,1200,340,1080,340C960,340,840,340,720,340C600,340,480,340,360,340C240,340,120,340,60,340L0,340Z"/></svg>